<svg xmlns="http://www.w3.org/2000/svg" width="1800" height="3100" viewBox="0 0 1800 3100">
  <defs>
    <style>
      .title { font: 700 68px Arial, sans-serif; fill: #0f172a; }
      .step { fill: #eef6ff; stroke: #2563eb; stroke-width: 3; rx: 18; }
      .steptext { font: 700 40px Arial, sans-serif; fill: #0f172a; }
      .subtext { font: 500 30px Arial, sans-serif; fill: #334155; }
      .arrow { stroke: #2563eb; stroke-width: 5; fill: none; marker-end: url(#arrowhead); }
    </style>
    <marker id="arrowhead" markerWidth="14" markerHeight="14" refX="10" refY="5" orient="auto">
      <polygon points="0,0 10,5 0,10" fill="#2563eb" />
    </marker>
  </defs>

  <text x="900" y="100" text-anchor="middle" class="title">Fly Gene Classification + Reagent Finder Pipeline</text>

  <rect x="130" y="160" width="1540" height="190" class="step" />
  <text x="900" y="238" text-anchor="middle" class="steptext">1) Read input directory with CSV files</text>
  <text x="900" y="300" text-anchor="middle" class="subtext">Each file must include gene symbols in the configured input column</text>

  <path d="M900 350 L900 410" class="arrow" />

  <rect x="130" y="410" width="1540" height="190" class="step" />
  <text x="900" y="488" text-anchor="middle" class="steptext">2) Convert symbols to FBgn IDs</text>
  <text x="900" y="550" text-anchor="middle" class="subtext">Runs HelperScripts/GetFBgnIDs.py before classification and reagent extraction</text>

  <path d="M900 600 L900 660" class="arrow" />

  <rect x="130" y="660" width="1540" height="220" class="step" />
  <text x="900" y="738" text-anchor="middle" class="steptext">3) Per CSV: extract valid FBgn IDs</text>
  <text x="900" y="796" text-anchor="middle" class="steptext">and split into batches (size = 50)</text>
  <text x="900" y="848" text-anchor="middle" class="subtext">State is saved under .batch_state for resume support</text>

  <path d="M900 880 L900 940" class="arrow" />

  <rect x="130" y="940" width="1540" height="220" class="step" />
  <text x="900" y="1018" text-anchor="middle" class="steptext">4) Per batch: reuse prior gene results from run_store</text>
  <text x="900" y="1076" text-anchor="middle" class="steptext">when available; process only uncached genes</text>
  <text x="900" y="1128" text-anchor="middle" class="subtext">Processed and reused records are merged for output</text>

  <path d="M900 1160 L900 1220" class="arrow" />

  <rect x="130" y="1220" width="1540" height="220" class="step" />
  <text x="900" y="1298" text-anchor="middle" class="steptext">5) For each gene: collect candidate references</text>
  <text x="900" y="1356" text-anchor="middle" class="steptext">from FlyBase, PubMed, and Europe PMC</text>
  <text x="900" y="1408" text-anchor="middle" class="subtext">Build one combined candidate reference set per gene</text>

  <path d="M900 1440 L900 1500" class="arrow" />

  <rect x="130" y="1500" width="1540" height="220" class="step" />
  <text x="900" y="1578" text-anchor="middle" class="steptext">6) Merge + deduplicate PMCIDs, then rank references</text>
  <text x="900" y="1636" text-anchor="middle" class="steptext">by source consensus and recency</text>
  <text x="900" y="1688" text-anchor="middle" class="subtext">Apply --reference-limit after ranking</text>

  <path d="M900 1720 L900 1780" class="arrow" />

  <rect x="130" y="1780" width="1540" height="220" class="step" />
  <text x="900" y="1858" text-anchor="middle" class="steptext">7) Resolve metadata and filter references</text>
  <text x="900" y="1916" text-anchor="middle" class="steptext">by keyword matches in title/abstract</text>
  <text x="900" y="1968" text-anchor="middle" class="subtext">Only matching references continue to summarization</text>

  <path d="M900 2000 L900 2060" class="arrow" />

  <rect x="130" y="2060" width="1540" height="260" class="step" />
  <text x="900" y="2138" text-anchor="middle" class="steptext">8) Per passing reference: fetch full text (or fallback),</text>
  <text x="900" y="2196" text-anchor="middle" class="steptext">summarize evidence, and run QC checks</text>
  <text x="900" y="2250" text-anchor="middle" class="subtext">Keep high-quality summaries (up to 6 per gene; max 50 attempts)</text>
  <text x="900" y="2296" text-anchor="middle" class="subtext">Drop outputs such as "No evidence found" or "skip reference"</text>

  <path d="M900 2320 L900 2380" class="arrow" />

  <rect x="130" y="2380" width="1540" height="220" class="step" />
  <text x="900" y="2458" text-anchor="middle" class="steptext">9) Per passing reference: extract and normalize</text>
  <text x="900" y="2516" text-anchor="middle" class="steptext">gene-linked reagent records from paper text</text>
  <text x="900" y="2568" text-anchor="middle" class="subtext">Keep only canonical `(stock_id, collection)` pairs and merge duplicates</text>

  <path d="M900 2600 L900 2660" class="arrow" />

  <rect x="130" y="2660" width="1540" height="220" class="step" />
  <text x="900" y="2738" text-anchor="middle" class="steptext">10) Aggregate accepted summaries and classify genes</text>
  <text x="900" y="2796" text-anchor="middle" class="steptext">into keyword categories</text>
  <text x="900" y="2848" text-anchor="middle" class="subtext">Output category list, confidence score, rationale, and supporting reference set</text>

  <path d="M900 2880 L900 2940" class="arrow" />

  <rect x="130" y="2940" width="1540" height="160" class="step" />
  <text x="900" y="3010" text-anchor="middle" class="steptext">11) Export &amp; persist artifacts</text>
  <text x="900" y="3060" text-anchor="middle" class="subtext">Write Gene Set, Classification, Reference Summaries, and Reagents sheets; save run/cache state</text>
</svg>
